<?xml version="1.0" encoding="UTF-8" standalone="no"?>
<!-- Created with Inkscape (http://www.inkscape.org/) -->

<svg
   width="661.69098mm"
   height="720mm"
   viewBox="0 0 661.69098 720"
   version="1.1"
   id="svg1042"
   inkscape:version="1.2.1 (9c6d41e410, 2022-07-14)"
   sodipodi:docname="Escudo UACH neutral.svg"
   xmlns:inkscape="http://www.inkscape.org/namespaces/inkscape"
   xmlns:sodipodi="http://sodipodi.sourceforge.net/DTD/sodipodi-0.dtd"
   xmlns="http://www.w3.org/2000/svg"
   xmlns:svg="http://www.w3.org/2000/svg">
  <sodipodi:namedview
     id="namedview1044"
     pagecolor="#ffffff"
     bordercolor="#666666"
     borderopacity="1.0"
     inkscape:showpageshadow="2"
     inkscape:pageopacity="0.0"
     inkscape:pagecheckerboard="0"
     inkscape:deskcolor="#d1d1d1"
     inkscape:document-units="mm"
     showgrid="false"
     inkscape:zoom="0.19220153"
     inkscape:cx="-88.448828"
     inkscape:cy="1415.1812"
     inkscape:window-width="1920"
     inkscape:window-height="1017"
     inkscape:window-x="-8"
     inkscape:window-y="410"
     inkscape:window-maximized="1"
     inkscape:current-layer="layer1" />
  <defs
     id="defs1039">
    <linearGradient
       id="path4297_1_"
       gradientUnits="userSpaceOnUse"
       x1="199.15961"
       y1="177.4604"
       x2="199.15961"
       y2="-0.57130003"
       gradientTransform="matrix(5.5791832,0,0,5.732484,-780.52771,-370.31846)">
					<stop
   offset="0"
   style="stop-color:#FFFFFF"
   id="stop12" />

					<stop
   offset="0"
   style="stop-color:#F7F7F7"
   id="stop14" />

					<stop
   offset="0"
   style="stop-color:#87B7E2"
   id="stop16" />

					<stop
   offset="0"
   style="stop-color:#B3D1ED"
   id="stop18" />

					<stop
   offset="1"
   style="stop-color:#FFFFFF"
   id="stop20" />

				</linearGradient>
  </defs>
  <g
     inkscape:label="Capa 1"
     inkscape:groupmode="layer"
     id="layer1">
    <path
       id="path4297"
       inkscape:connector-curvature="0"
       class="st3"
       d="m 75.318986,401.27388 c 0,-135.85988 114.373224,-245.92357 255.526574,-245.92357 141.15331,0 255.52655,110.06369 255.52655,245.92357 0,135.8599 -114.37324,245.92351 -255.52655,245.92351 -141.15334,0 -255.526574,-110.06361 -255.526574,-245.92351"
       style="fill:url(#path4297_1_);stroke-width:5.65531" />
    <path
       id="path4333"
       inkscape:connector-curvature="0"
       class="st0"
       d="m 237.6732,629.99999 c -29.01175,-10.89177 -55.79184,-26.94269 -78.66649,-47.0064 2.7896,-1.14648 3.90544,-1.71972 8.36879,-5.7325 1.11581,-1.14648 2.23166,-1.71972 3.90541,-2.29296 0,0 0.5579,0 0.5579,0 3.3475,-4.01279 10.0425,-3.43955 15.06379,-3.43955 1.67376,0 6.1371,0 7.25292,-0.57302 0.5579,-1.14649 1.67375,-2.29297 2.23169,-3.43945 1.67374,-2.8663 3.90541,-4.58601 6.69501,-6.87897 2.23169,-1.14648 4.46334,-2.86621 6.69503,-4.01279 2.7896,-1.71972 5.57916,-2.8662 8.36876,-4.58592 1.11585,-0.57303 2.23169,-1.14648 3.34753,-1.71982 1.11581,-1.71972 3.34751,-3.43944 5.02126,-4.58592 2.23166,-1.14648 4.46333,-2.8663 6.695,-4.01278 2.7896,-1.71972 5.57918,-1.71972 8.92669,-1.71972 1.11585,0 2.7896,0 3.90545,0 3.3475,0 6.695,1.14648 8.36876,4.01268 0,0 0,0 0.55788,0 3.34751,0.57303 6.13711,0.57303 8.9267,2.8663 1.67376,1.14648 2.78957,2.8662 3.90542,4.01278 1.11584,0.57304 2.23169,1.14648 2.78959,1.71972 0.5579,0.57304 1.11584,0.57304 1.67375,1.14648 7.25294,2.8662 19.52715,9.17195 23.99049,14.3312 3.34751,1.71972 6.13711,3.43945 9.48461,5.15927 5.02128,2.29296 8.9267,3.43944 11.15838,8.5987 0.5579,1.71972 1.67375,2.29296 3.3475,2.8662 1.11584,0.57303 1.67375,1.14658 2.7896,2.29306 2.23167,2.29296 4.46334,6.30575 6.695,8.02547 3.90545,2.29295 6.69504,5.15925 9.48464,8.02545 2.23166,2.86621 3.90541,4.58603 6.695,6.87899 l 5.5792,4.58603 -7.81085,1.71971 c -13.39005,2.29296 -26.78009,4.58602 -40.17013,6.30574 -22.87465,4.01269 -44.07554,6.30575 -65.83437,7.45223"
       style="fill:#ffffff;stroke-width:5.65531" />
    <path
       id="path4335"
       inkscape:connector-curvature="0"
       class="st4"
       d="m 229.86235,627.13368 c -24.5484,-10.31842 -47.42305,-24.07638 -67.50814,-41.27378 2.2317,-1.14658 3.90544,-2.29307 8.36879,-6.30575 1.67376,-1.14648 2.7896,-1.14648 4.46335,-2.8663 3.34751,-4.01267 17.29545,0.57303 22.31675,-3.43944 1.67374,-1.14648 2.23165,-5.7325 8.36876,-9.74528 6.69504,-4.58593 18.96923,-10.31842 18.96923,-10.89166 0.55789,-1.1466 2.23166,-2.86631 4.46334,-4.01279 1.11583,-1.14648 3.90542,-2.8662 6.1371,-4.01268 2.23167,-1.14648 4.46334,-1.14648 6.13709,-1.14648 2.23168,0 7.81086,-1.14658 8.9267,2.29296 0,1.14648 1.67376,1.14648 3.34751,1.71972 2.23165,0.57303 5.02125,0.57303 6.69501,2.29296 1.11584,1.14659 2.23169,2.86631 3.90543,4.58603 0.5579,0.57303 3.34751,1.71971 5.02126,2.86619 6.1371,2.29306 20.08508,9.17205 23.43259,14.3312 1.67375,1.1466 6.695,4.01279 10.04254,5.73251 4.46331,2.29306 7.81084,2.8663 8.92667,6.30574 1.67376,4.58602 4.46334,4.58602 6.69502,6.30574 2.23167,2.29296 4.46335,6.30575 7.81085,8.59871 8.36879,5.15925 8.36879,9.17204 15.62171,14.90454 -0.5579,0.57303 -54.11804,10.31842 -112.14156,13.75786"
       style="fill:#00aee5;stroke-width:5.65531" />
    <path
       id="path4337"
       inkscape:connector-curvature="0"
       class="st0"
       d="m 517.19023,568.66239 c -21.20088,21.78342 -45.74927,39.55417 -73.64517,52.73879 l -119.95245,-7.45222 10.60045,-8.02547 v 0 c 1.11584,-1.14648 3.34749,-2.29296 5.02128,-2.86619 1.67376,-0.57304 2.78957,-1.14648 4.46335,-1.14648 0.5579,0 0.5579,0 1.11583,0 0.55788,-0.57304 1.11582,-1.14648 1.67373,-1.71972 0.5579,-0.57303 0.5579,-0.57303 1.11586,-1.14658 1.67375,-0.57304 2.7896,-1.14648 2.7896,-1.14648 v 0 l 13.39004,-5.73251 10.04254,-5.15915 14.50586,-6.30575 7.81085,-3.43954 6.69503,-4.01268 2.78959,-2.29307 2.78958,-2.86619 c 1.11584,-2.8662 1.67378,-3.43954 3.90543,-5.7325 1.11585,-1.14649 2.23169,-2.86621 3.90545,-3.43945 1.67375,-1.14648 3.9054,-2.29306 5.57915,-4.01278 1.67376,-1.71971 3.34754,-2.86619 5.5792,-4.01267 2.23169,-1.14659 3.90544,-1.14659 6.1371,-1.14659 1.11585,0 1.67376,0 2.78959,0 0.5579,0 1.11585,0 1.11585,0 0,0 0.5579,0 0.5579,-0.57303 v 0 0 c 1.67375,-1.14648 3.90543,-2.29296 6.13708,-2.29296 1.67377,0 3.34751,0.57303 5.02133,1.14648 2.23159,0.57303 3.34747,1.71972 4.46328,3.43944 1.67379,-1.71972 3.34758,-3.43944 6.13717,-2.8662 2.23158,0 3.34747,1.14648 5.57918,1.71972 h 0.55737 0.55738 c 0.55737,0 0.55737,0.57303 1.11589,0.57303 2.23159,-1.71983 3.90538,-2.8663 7.25287,-4.01278 h 0.55841 0.55737 c 0,0 6.13707,0 7.25286,0 1.6738,0 6.69508,1.71971 7.81087,2.29295 1.67379,1.14648 4.46338,2.29296 5.57928,3.43955 0.55737,0.57303 1.11578,1.14648 1.67367,1.14648 3.34749,2.29296 5.57918,5.15926 8.36876,7.45222 2.23169,1.71972 4.46338,1.71972 6.69508,4.01279 0.55738,0.57303 2.23169,1.71971 2.78957,2.29295 z"
       style="fill:#ffffff;stroke-width:5.65531" />
    <path
       id="path4339"
       inkscape:connector-curvature="0"
       class="st4"
       d="m 514.40065,571.52858 c -18.96921,18.91723 -40.1701,34.39491 -64.16058,47.00641 l -116.60492,-7.45223 3.34751,-2.29296 c 0,0 2.23168,-1.71972 3.34749,-1.71972 0.5579,0 3.34754,-1.14659 3.90545,-1.14659 0.5579,0 3.90543,-0.57302 3.90543,-0.57302 0,0 1.11582,-1.71972 1.67376,-2.29297 0.5579,0 0.5579,-0.57302 1.11581,-1.14648 0.5579,0 2.2317,-1.14648 2.2317,-1.14648 l 13.39005,-5.73249 10.0425,-5.15927 15.06379,-6.30574 7.81088,-4.01268 7.25292,-4.01278 3.34753,-2.8662 3.3475,-3.43955 c 1.11584,-3.43943 1.11584,-2.8662 3.3475,-5.15926 0.5579,-0.57303 2.23165,-2.86619 3.3475,-2.86619 0.5579,-0.57304 6.13711,-4.01279 6.13711,-4.01279 1.67374,-1.71972 3.34753,-2.29296 5.02128,-3.43944 1.67375,-0.57303 2.78957,-0.57303 3.90542,-0.57303 0.55788,0 1.67374,0 2.78959,0 2.23169,0 2.7896,0 4.46335,-1.14648 3.3475,-2.29306 3.90543,-1.14648 7.81085,-0.57303 0.55737,0 2.78958,3.43955 2.78958,3.43955 2.23169,0.57303 2.23169,0.57303 4.46338,0 1.6737,-1.14648 2.78959,-2.8662 3.90538,-2.8662 1.11591,0 3.34759,1.14648 4.46338,1.71972 0,0 1.67381,1.14648 2.2317,1.14648 0.55738,0 2.78958,0.57303 3.34747,-0.57304 2.2317,-2.29295 3.34749,-2.8663 6.13707,-4.01278 0,0 7.25297,0 7.25297,0 0.55738,0 5.02129,1.14648 5.57918,1.71983 0.55737,0.57303 3.90547,2.29295 4.46338,2.86619 0,0 1.11579,1.14648 2.23169,1.71972 2.23169,1.71982 5.57917,5.15927 8.36876,7.45223 2.23169,1.71982 4.46338,2.29306 6.13707,3.43953 -0.55842,1.71972 1.67379,3.43944 2.78958,4.01268 z"
       style="fill:#00aee5;stroke-width:5.65531" />
    <path
       id="path4341"
       inkscape:connector-curvature="0"
       class="st0"
       d="m 391.10075,639.74516 c -19.52716,4.58603 -39.6122,6.87899 -60.81311,6.87899 -24.54842,0 -47.98097,-3.43944 -70.29771,-9.17195 -13.94795,-6.87897 -26.78008,-14.90444 -42.9597,-24.07638 l 27.33799,-13.75806 11.71626,-6.87889 c 6.69506,-4.01278 11.7163,-6.87897 20.0851,-7.45232 1.67375,0 3.90541,-1.71972 4.46334,-2.8662 1.67376,-1.14648 3.34751,-2.29296 5.02126,-2.8662 1.11585,-0.57303 3.90544,-2.29306 5.02125,-3.43954 5.5792,-4.01268 9.48464,-3.43943 16.17965,-2.8662 3.3475,0 6.1371,1.14648 8.36878,2.8662 0.55789,0.57303 1.67375,1.71972 2.78959,2.29306 1.11583,0 2.78958,-1.14658 3.3475,-1.14658 5.57918,-3.43944 11.15836,-4.58591 17.8534,-5.73251 12.2742,-1.71972 21.75881,0 31.2434,5.73251 2.23169,-1.14648 4.46336,-1.71972 6.13711,-1.71972 1.11585,0 2.78959,0 3.90544,-0.57303 2.23166,0 4.46335,0 6.695,0.57303 3.34753,1.14648 7.81088,3.43944 10.60045,5.7325 2.23168,1.71972 4.46336,3.43945 6.69503,5.15916 2.23167,1.71982 4.46335,3.43954 6.13711,5.15926 1.67374,0.57303 4.46334,1.14658 6.13709,1.14658 13.39004,1.71972 3.90544,0 16.17964,6.30565 l 13.39004,10.31852 c -18.96923,12.03814 -36.26468,22.92991 -55.23391,30.38212"
       style="fill:#ffffff;stroke-width:5.65531" />
    <path
       id="path4343"
       inkscape:connector-curvature="0"
       class="st4"
       d="m 456.93514,615.09554 c -37.38058,20.63695 -80.34029,32.10185 -126.08958,32.10185 -44.63348,0 -85.91943,-10.89166 -122.18411,-29.80889 l 38.49637,-14.3312 12.27421,-6.87898 c 7.25291,-4.58603 11.15835,-6.30575 17.85339,-6.87899 2.78957,0 5.02126,-1.71971 7.25292,-3.43943 1.11584,-1.14658 2.7896,-1.71983 4.46334,-2.29307 1.67375,-0.57303 3.90545,-2.29296 5.5792,-4.01268 4.46334,-3.43954 8.36879,-2.29306 12.83212,-2.29306 10.04253,0.57303 6.69502,8.59881 17.29546,2.8663 5.57919,-3.43954 10.60045,-4.58602 16.17964,-5.15926 11.15835,-1.71972 20.08505,-0.57303 30.68549,6.87898 0,0 3.34751,-2.8663 6.13711,-2.8663 2.78959,0 5.5792,-1.14648 8.92669,0 3.34751,1.14658 7.25295,2.8663 8.92669,4.58602 1.67375,1.71972 13.39004,10.89176 13.39004,10.89176 0,0 3.3475,1.14649 7.81085,1.71973 10.60046,1.14648 26.78009,11.465 40.17017,18.91722"
       style="fill:#00aee5;stroke-width:5.65531" />
    <path
       class="st5"
       d="M 330.84556,82.547766 C 147.84836,82.547766 0,225.28662 0,401.27388 0,577.26109 148.40628,720 330.84556,720 c 182.9972,0 330.84558,-142.73891 330.84558,-318.72612 0,-175.98726 -148.40628,-318.726114 -330.84558,-318.726114 z m 0,574.968144 c -147.29045,0 -266.127025,-114.64973 -266.127025,-256.24203 0,-141.59237 119.394515,-256.24204 266.127025,-256.24204 147.29048,0 266.12699,114.64967 266.12699,256.24204 0,141.5923 -119.39452,256.24203 -266.12699,256.24203 z"
       id="path30"
       style="fill:#8c2889;stroke-width:5.65531" />
    <polygon
       id="polygon4347"
       class="st6"
       points="173.8,64.9 236.1,148.3 236.1,64.8 "
       transform="matrix(5.5791831,0,0,5.7324838,-780.52771,-370.31845)"
       style="fill:#6ebde3" />
    <polygon
       id="polygon4349"
       class="st7"
       points="163.4,64.9 173.8,64.9 173.8,148.3 236.1,148.3 236.1,157.7 163.4,157.7 "
       transform="matrix(5.5791831,0,0,5.7324838,-780.52771,-370.31845)"
       style="fill:#058943" />
    <g
       id="g94"
       transform="matrix(5.5791831,0,0,5.7324838,-780.52771,-370.31845)">
					<path
   class="st8"
   d="m 147,149.8 c 0,0 1.3,-0.1 1.7,-2.3 0,0 0.1,-1.6 1,-1.7 0,0 0.8,-0.2 1,0.7 0,0 -0.1,1.2 -0.7,1.6 l 0.8,0.6 c 0,0 1.1,-1 1.1,-2.2 0,0 -0.1,-2.1 -2.1,-2.4 0,0 -2.3,-0.5 -2.9,2 0,0 -0.2,2.2 -1.4,2 0,0 -1.2,-0.5 -0.7,-1.7 0,0 0.4,-0.5 0.6,-0.7 l 0.2,-0.1 -1,-0.9 c 0,0 -1.5,2 -0.7,3.5 -0.1,0.2 0.9,2.2 3.1,1.6 z"
   id="path34"
   style="fill:#f9ed25" />

					<polygon
   class="st8"
   points="152.3,149.3 144.9,151.7 145.6,153.5 152.8,151.3 "
   id="polygon36"
   style="fill:#f9ed25" />

					<path
   class="st8"
   d="m 149,143.6 c 1.5,-0.5 1.4,-2.9 1.4,-2.9 l -0.5,-3.3 -7.7,0.6 v 0 2.1 l 7,-0.7 c 0.5,2.1 -1.1,2.3 -1.1,2.3 -1.8,0.2 -1.8,-1.8 -1.8,-1.8 l -3.5,2.1 0.3,2.4 3,-2.2 c 0.5,1.8 2.9,1.4 2.9,1.4 z"
   id="path38"
   style="fill:#f9ed25" />

					<path
   class="st8"
   d="m 163.3,166.6 -2.9,-2.8 -5.3,5.3 2,2.1 c 3.1,2.9 5.6,0.8 5.6,0.8 3.1,-2.1 0.6,-5.4 0.6,-5.4 z m -1.5,3.2 c 0,0 -1.9,2.3 -3.8,0.7 l -0.5,-0.5 3.8,-3.8 0.5,0.5 c -0.1,-0.1 1.4,1.6 0,3.1 z"
   id="path40"
   style="fill:#f9ed25" />

					<path
   class="st8"
   d="m 157.7,160.7 -7.9,1.7 0.6,1 2.3,-0.5 1.4,1.9 -1.4,2 1.6,2 4.7,-6.5 z m -2.8,3.2 -1,-1.3 2.7,-0.8 z"
   id="path42"
   style="fill:#f9ed25" />

					<polygon
   class="st8"
   points="143.2,134.1 145.7,134.2 145.6,136.6 146.5,136.7 146.7,134.3 148.9,134.4 148.8,137 149.7,137 150.1,132.5 142.2,132 142.1,136.7 143,136.7 "
   id="polygon44"
   style="fill:#f9ed25" />

					<path
   class="st8"
   d="m 153.3,160.3 c 2.6,-1.3 1.7,-4.9 1.7,-4.9 l -1.5,-3.2 -7.3,3.2 1.9,3.7 c 1.6,2.7 5.2,1.2 5.2,1.2 z m -4.4,-2.4 -0.6,-1 5,-2.3 0.5,1 c 0,0 0.5,2 -1.5,2.7 -0.1,0 -2.4,0.9 -3.4,-0.4 z"
   id="path46"
   style="fill:#f9ed25" />

					<path
   class="st8"
   d="m 249.8,112.6 -5.3,1.7 0.4,1.1 5,-1.7 c 1.5,-0.2 1.7,0.7 1.7,0.7 0.4,1.4 -1.1,2 -1.1,2 l -4.7,1.5 0.6,2.1 4.5,-1.5 c 2.8,-0.8 2,-3.7 2,-3.7 -0.4,-2.9 -3.1,-2.2 -3.1,-2.2 z"
   id="path48"
   style="fill:#f9ed25" />

					<polygon
   class="st8"
   points="247.3,122.8 250.5,122.2 251,124.2 247.8,125 248.2,126.9 255.7,125.4 255.4,123.5 251.8,124.1 251.4,122 254.8,121.2 254.3,119.1 246.9,120.8 "
   id="polygon50"
   style="fill:#f9ed25" />

					<polygon
   class="st8"
   points="150,130.4 146.4,128.6 150.4,127.2 150.5,125 142.4,127.7 150,131.4 "
   id="polygon52"
   style="fill:#f9ed25" />

					<polygon
   class="st8"
   points="145.7,113.9 145.3,114.9 150.8,116.6 144.3,118.3 144,119.6 151.5,121.6 151.9,120.5 148.2,119.5 152.5,118.1 153.2,116.1 "
   id="polygon54"
   style="fill:#f9ed25" />

					<polygon
   class="st8"
   points="151.1,122.8 143.4,121.4 143,123.5 150.7,124.8 "
   id="polygon56"
   style="fill:#f9ed25" />

					<path
   class="st8"
   d="m 251.3,111.1 -0.4,-1 -2.5,0.6 -1.2,-2.3 1.6,-1.6 -1.1,-2.1 -5.5,5.8 1.2,2.1 z m -4.8,-1.8 0.6,1.5 -2.6,0.6 z"
   id="path58"
   style="fill:#f9ed25" />

					<path
   class="st8"
   d="m 147.7,112.8 5.5,2.8 0.5,-0.9 -4.7,-2.4 c -1.3,-0.6 -0.5,-1.8 -0.5,-1.8 0.5,-1 1.5,-0.7 1.5,-0.7 l 5,2.4 1,-1.9 -5,-2.4 c -2.3,-0.9 -3.6,1.7 -3.6,1.7 -0.9,2.2 0.3,3.2 0.3,3.2 z"
   id="path60"
   style="fill:#f9ed25" />

					<path
   class="st8"
   d="m 249.2,132.5 7.9,1.2 -0.1,-1 -2.5,-0.3 -0.3,-2.5 2,-1 -0.3,-2.3 -7.2,3.6 z m 4.1,-2.1 0.1,1.6 -2.7,-0.3 z"
   id="path62"
   style="fill:#f9ed25" />

					<path
   class="st8"
   d="m 246.9,160.7 c 1.1,1.6 -0.1,3 -0.1,3 -1,1.1 -3.6,-0.3 -3.6,-0.3 -1.7,-1 -1.6,-2.3 -1.6,-2.3 0,-1.9 2.7,-2 2.7,-2 l -0.1,-0.9 c -2.6,0 -3.4,2.1 -3.4,2.1 -1.5,2.9 1.3,5.1 1.3,5.1 3.4,1.8 5.3,-0.9 5.3,-0.9 1.6,-1.7 0.8,-4.2 0.8,-4.2 z"
   id="path64"
   style="fill:#f9ed25" />

					<path
   class="st8"
   d="m 230,171.6 -3.1,2.4 4.7,5.7 3.1,-2.3 c 2.5,-2.1 0.5,-5 0.5,-5 -2.3,-2.5 -5.2,-0.8 -5.2,-0.8 z m 3.7,5.2 -1,0.8 -3.3,-4 0.8,-0.7 c 0,0 1.6,-0.7 2.8,0.5 0,0 1.6,1.9 0.7,3.4 z"
   id="path66"
   style="fill:#f9ed25" />

					<path
   class="st8"
   d="m 219.9,177.3 0.6,7.7 1.2,-0.4 -0.2,-2 2.4,-1.1 1.6,1.6 2.3,-1 -5.9,-5.6 z m 1.4,4.2 -0.2,-2.6 1.9,1.8 z"
   id="path68"
   style="fill:#f9ed25" />

					<polygon
   class="st8"
   points="245.3,152.7 248,154.1 247,156 244.2,154.6 243.3,156.4 250.2,159.9 251.1,158.1 248.2,156.6 249.2,154.6 252.2,156 253.1,154.2 246.1,150.7 "
   id="polygon70"
   style="fill:#f9ed25" />

					<path
   class="st8"
   d="m 254.9,134.7 -5.6,-0.4 -0.1,1.1 5.3,0.3 c 1.3,0.2 1.3,1.4 1.3,1.4 0,1.2 -1,1.3 -1,1.3 l -5.7,-0.2 -0.1,2.1 5.9,0.1 c 2.1,-0.1 2.1,-2.7 2.1,-2.7 0.3,-2.9 -2.1,-3 -2.1,-3 z"
   id="path72"
   style="fill:#f9ed25" />

					<polygon
   class="st8"
   points="248.5,142.9 251.3,143.5 251,145.7 248,145 247.5,147.2 255,148.8 255.5,146.7 252.3,145.9 252.6,143.8 256,144.4 256.4,142.7 248.8,141.1 "
   id="polygon74"
   style="fill:#f9ed25" />

					<polygon
   class="st8"
   points="246.2,150.1 253.6,152.4 254.4,150.4 246.9,148.1 "
   id="polygon76"
   style="fill:#f9ed25" />

					<polygon
   class="st8"
   points="239.4,172.1 237.8,170.7 239.3,168.8 238.4,168 236.8,169.8 235.2,168.5 236.9,166.5 236.1,165.7 233,169.3 238.8,174.2 242.1,170.7 241.3,169.9 "
   id="polygon78"
   style="fill:#f9ed25" />

					<path
   class="st8"
   d="m 179.3,177 -2.1,4.2 c 0,0 -1.1,1.6 -2.4,0.8 0,0 -1.1,-0.9 -0.2,-2.5 l 2,-3.9 -1.9,-0.9 -2.3,4.4 c 0,0 -1.2,2.6 1.3,3.8 0,0 2.7,1.6 4.4,-1.4 l 2.1,-4 z"
   id="path80"
   style="fill:#f9ed25" />

					<polygon
   class="st8"
   points="186.9,179.7 180.9,177.6 180.4,178.6 182.3,179.3 180.2,185.3 182.3,186 184.5,180 186.5,180.6 "
   id="polygon82"
   style="fill:#f9ed25" />

					<path
   class="st8"
   d="m 170.7,172 -6.7,4.5 1.1,0.8 1.8,-1.4 2,1.4 -0.6,2.1 2,1.4 2.2,-7.7 z m -1.5,4.3 -1.5,-1 2.3,-1.7 z"
   id="path84"
   style="fill:#f9ed25" />

					<polygon
   class="st8"
   points="195.7,188.3 195.7,183 199.6,188 200.7,188 200.7,180.9 199.7,180.9 199.7,184.6 197.1,181 194.6,180.9 194.6,188.3 "
   id="polygon86"
   style="fill:#f9ed25" />

					<path
   class="st8"
   d="m 205.1,180.7 c -2.1,0.6 -3.4,2.7 -2.8,4.7 v 0 c 0.6,2.1 2.7,3.3 4.9,2.7 2.1,-0.6 3.4,-2.7 2.8,-4.7 -0.6,-2 -2.8,-3.2 -4.9,-2.7 z m 1.9,6.7 c -0.9,0.3 -2.1,-0.9 -2.5,-2.5 -0.4,-1.6 0,-3.1 0.9,-3.4 1,-0.2 2.1,0.9 2.5,2.5 0.5,1.6 0.1,3.1 -0.9,3.4 z"
   id="path88"
   style="fill:#f9ed25" />

					<polygon
   class="st8"
   points="215.4,178.7 215,182.9 212.1,179.7 210.1,180.2 212.1,187.3 213.3,186.9 212.1,182.8 215.4,186.4 216.3,181.5 217.5,185.9 219.6,185.5 217.6,178.2 "
   id="polygon90"
   style="fill:#f9ed25" />

					<path
   class="st8"
   d="m 190.9,180.2 c -2.1,-0.6 -4.3,0.6 -4.9,2.6 -0.6,2.1 0.6,4.2 2.7,4.8 2.1,0.6 4.3,-0.6 4.9,-2.6 0.6,-2.1 -0.6,-4.2 -2.7,-4.8 z m 0.7,4.3 c -0.5,1.6 -1.6,2.7 -2.6,2.4 -0.9,-0.3 -1.3,-1.8 -0.9,-3.4 0.5,-1.6 1.6,-2.7 2.6,-2.4 1,0.2 1.3,1.7 0.9,3.4 z"
   id="path92"
   style="fill:#f9ed25" />

				</g>
    <g
       id="g154"
       transform="matrix(5.5791831,0,0,5.7324838,-780.52771,-370.31845)">
					<path
   class="st0"
   d="m 170.6,89 -4.9,-1.5 v 0.7 l 1.4,0.4 v 1.5 l -1.4,0.5 v 1.6 l 4.9,-2 z m -3,0.9 v -1.2 l 1.6,0.5 z"
   id="path96"
   style="fill:#ffffff" />

					<path
   class="st0"
   d="m 168.7,96.7 c 1.5,0.2 1.8,-1.4 1.8,-1.4 v -2.5 h -4.9 v 1.3 h 4.3 v 0.5 c 0,0.7 -0.9,0.7 -0.9,0.7 -0.7,0 -0.9,-0.6 -0.9,-0.6 v -0.4 c 0,-0.1 -0.2,-0.1 -0.2,-0.1 l -2.2,1 v 1.6 l 2,-1.1 c 0.1,0.9 1,1 1,1 z"
   id="path98"
   style="fill:#ffffff" />

					<polygon
   class="st0"
   points="166.3,70.8 170.6,70.8 170.6,69.5 165.7,69.5 165.7,72.6 166.3,72.6 "
   id="polygon100"
   style="fill:#ffffff" />

					<polygon
   class="st0"
   points="165.7,85.6 165.7,86.9 170.6,86.9 170.6,85.6 168.5,85.6 168.5,84.2 170.6,84.2 170.6,82.9 165.7,82.9 165.7,84.2 167.8,84.2 167.8,85.6 "
   id="polygon102"
   style="fill:#ffffff" />

					<path
   class="st0"
   d="m 165.7,74.4 v 1.1 c 0.1,1.1 1.1,1.2 1.1,1.2 h 3.8 v 0 -0.7 h -3.3 c -0.9,-0.1 -0.9,-0.9 -0.9,-0.9 0,-0.8 0.7,-0.9 0.7,-0.9 h 3.5 V 73 H 167 c -1.2,0.2 -1.3,1.4 -1.3,1.4 z"
   id="path104"
   style="fill:#ffffff" />

					<path
   class="st0"
   d="m 170.6,99.6 h -4.9 v 1.3 h 1.9 v 1.1 c -0.1,1.3 1.1,1.5 1.1,1.5 1.4,0.2 1.8,-1.5 1.8,-1.5 v -2.4 z m -1.6,2.5 c 0,0 -0.7,-0.1 -0.7,-0.6 v -0.6 h 1.5 v 0.5 c 0,-0.1 -0.1,0.8 -0.8,0.7 z"
   id="path106"
   style="fill:#ffffff" />

					<path
   class="st0"
   d="m 165.7,106.7 v 1.6 l 4.9,-1.9 V 105 l -4.9,-1.5 v 0.7 l 1.4,0.4 v 1.5 z m 1.9,-1.9 1.6,0.6 -1.6,0.7 z"
   id="path108"
   style="fill:#ffffff" />

					<path
   class="st0"
   d="m 165.7,142.3 v 1.6 l 4.9,-2 v -1.3 l -4.9,-1.5 v 0.7 l 1.4,0.4 v 1.5 z m 1.9,-1.9 1.6,0.6 -1.6,0.6 z"
   id="path110"
   style="fill:#ffffff" />

					<path
   class="st0"
   d="m 170.6,135 h -4.9 v 1.3 h 4.3 v 0.5 c 0,0.7 -0.9,0.7 -0.9,0.7 -0.7,0 -0.9,-0.7 -0.9,-0.7 v -0.4 c 0,-0.1 -0.2,-0.1 -0.2,-0.1 l -2.2,1 v 1.6 l 2,-1.1 c 0.2,0.9 1.1,1.1 1.1,1.1 1.5,0.2 1.8,-1.4 1.8,-1.4 V 135 Z"
   id="path112"
   style="fill:#ffffff" />

					<path
   class="st0"
   d="m 167.2,77.6 c -1.7,0.5 -1.4,2.7 -1.4,2.7 0,1.1 1.2,1.8 1.2,1.8 l 0.3,-0.5 -0.2,-0.1 c -0.6,-0.4 -0.8,-1.1 -0.8,-1.1 -0.1,-1.5 2.2,-1.4 2.2,-1.4 1.7,0 1.7,1.1 1.7,1.1 0.2,0.8 -1,1.4 -1,1.4 l 0.5,0.6 c 1,-0.6 0.9,-2 0.9,-2 0.1,-1.1 -0.5,-1.7 -0.5,-1.7 -1,-1.4 -2.9,-0.8 -2.9,-0.8 z"
   id="path114"
   style="fill:#ffffff" />

					<polygon
   class="st0"
   points="165.7,123.7 166.3,123.6 166.3,121.8 170.6,121.8 170.6,120.5 165.7,120.5 "
   id="polygon116"
   style="fill:#ffffff" />

					<path
   class="st0"
   d="m 169,133.2 0.5,0.7 c 0,0 1.1,-0.5 1,-2.1 0,0 0,-2.2 -2.4,-2.4 0,0 -2.5,0.1 -2.5,2.2 0,0 -0.2,1.7 0.7,2.5 h 0.1 1.3 V 133 h -1.1 c 0,0 -0.6,-0.2 -0.5,-1.1 0,0 0.2,-1.3 1.6,-1.3 0,0 1.9,-0.1 2.1,1 0.1,0.1 0.3,1 -0.8,1.6 z"
   id="path118"
   style="fill:#ffffff" />

					<path
   class="st0"
   d="m 165.7,116.2 v 1.6 l 4.9,-1.9 v -1.3 l -4.9,-1.5 v 0.7 l 1.4,0.4 v 1.5 z m 1.9,-1.9 1.6,0.6 -1.6,0.6 z"
   id="path120"
   style="fill:#ffffff" />

					<path
   class="st0"
   d="m 168.7,112.6 c 1.5,0.2 1.8,-1.4 1.8,-1.4 v -2.5 h -4.9 v 1.3 h 4.3 v 0.5 c 0,0.7 -0.9,0.7 -0.9,0.7 -0.7,0 -0.9,-0.6 -0.9,-0.6 v -0.4 c 0,-0.1 -0.2,-0.1 -0.2,-0.1 l -2.2,1 v 1.6 l 2,-1.2 c 0.1,1 1,1.1 1,1.1 z"
   id="path122"
   style="fill:#ffffff" />

					<path
   class="st0"
   d="m 168.1,123.9 c -1.3,0 -2.4,1.1 -2.4,2.4 0,1.3 1.1,2.4 2.4,2.4 1.4,0 2.5,-1.1 2.5,-2.4 0,-1.3 -1.1,-2.4 -2.5,-2.4 z m 0,3.6 c -1.1,0 -1.9,-0.5 -1.9,-1.1 0,-0.6 0.9,-1.1 1.9,-1.1 1.1,0 1.9,0.5 1.9,1.1 0,0.6 -0.9,1.1 -1.9,1.1 z"
   id="path124"
   style="fill:#ffffff" />

					<path
   class="st0"
   d="m 170.6,146.9 v -2.5 h -4.9 v 1.3 h 4.3 v 0.5 c 0,0.7 -0.9,0.7 -0.9,0.7 -0.7,0 -0.9,-0.6 -0.9,-0.6 v -0.4 c 0,-0.1 -0.2,-0.1 -0.2,-0.1 l -2.2,1 v 1.6 l 2,-1.2 c 0.2,1 1.1,1.1 1.1,1.1 1.4,0.2 1.7,-1.4 1.7,-1.4 z"
   id="path126"
   style="fill:#ffffff" />

					<path
   class="st0"
   d="m 213,152.4 c 0.2,-1.4 -1.5,-1.6 -1.5,-1.6 H 209 v 4.5 h 1.3 v -3.9 h 0.5 c 0.7,0 0.7,0.9 0.7,0.9 0,0.7 -0.7,0.8 -0.7,0.8 h -0.4 c -0.1,0 -0.1,0.2 -0.1,0.2 l 1,2 h 1.6 l -1.2,-1.8 c 1.2,-0.3 1.3,-1.1 1.3,-1.1 z"
   id="path128"
   style="fill:#ffffff" />

					<path
   class="st0"
   d="m 205.4,150.7 -1.5,4.5 h 0.6 l 0.4,-1.3 h 1.5 l 0.5,1.3 h 1.5 l -1.9,-4.5 z m -0.3,2.7 0.5,-1.5 0.6,1.5 z"
   id="path130"
   style="fill:#ffffff" />

					<path
   class="st0"
   d="m 227.1,150.7 -1.5,4.5 h 0.6 l 0.4,-1.3 h 1.5 l 0.5,1.3 h 1.5 l -1.9,-4.5 z m -0.3,2.7 0.5,-1.5 0.6,1.5 z"
   id="path132"
   style="fill:#ffffff" />

					<path
   class="st0"
   d="m 233.6,153.4 c 1,-0.2 1.1,-1 1.1,-1 0.2,-1.4 -1.5,-1.6 -1.5,-1.6 h -2.6 v 4.5 h 1.3 v -3.9 h 0.5 c 0.8,0 0.7,0.9 0.7,0.9 0,0.7 -0.7,0.8 -0.7,0.8 H 232 c -0.1,0 -0.1,0.2 -0.1,0.2 l 1,2 h 1.6 z"
   id="path134"
   style="fill:#ffffff" />

					<path
   class="st0"
   d="m 222.8,150.7 h -2.2 v 4.5 h 2.4 c 1.8,-0.1 2.1,-2.1 2.1,-2.1 0.2,-2.1 -2.3,-2.4 -2.3,-2.4 z m 0.9,2.4 c 0,0 -0.1,1.5 -1.1,1.5 h -0.7 v -3.1 h 0.7 c -0.1,-0.1 1.2,0.2 1.1,1.6 z"
   id="path136"
   style="fill:#ffffff" />

					<path
   class="st0"
   d="m 214.8,150.7 -1.5,4.5 h 0.6 l 0.4,-1.3 h 1.5 l 0.5,1.3 h 1.5 l -1.9,-4.5 z m -0.2,2.7 0.5,-1.5 0.6,1.5 z"
   id="path138"
   style="fill:#ffffff" />

					<path
   class="st0"
   d="m 174.9,150.7 c -1.3,0 -2.3,1 -2.3,2.2 0,1.2 1,2.2 2.3,2.2 1.3,0 2.3,-1 2.3,-2.2 0,-1.2 -1,-2.2 -2.3,-2.2 z m 0,4 c -0.6,0 -1,-0.8 -1,-1.8 0,-1 0.5,-1.8 1,-1.8 0.6,0 1,0.8 1,1.8 0.1,1.1 -0.4,1.8 -1,1.8 z"
   id="path140"
   style="fill:#ffffff" />

					<path
   class="st0"
   d="m 187.6,152.4 c 0.2,-1.4 -1.5,-1.6 -1.5,-1.6 h -2.6 v 4.5 h 1.3 v -3.9 h 0.5 c 0.7,0 0.7,0.9 0.7,0.9 0,0.7 -0.7,0.8 -0.7,0.8 h -0.4 c -0.1,0 -0.1,0.2 -0.1,0.2 l 1,2 h 1.6 l -1.2,-1.8 c 1.3,-0.3 1.4,-1.1 1.4,-1.1 z"
   id="path142"
   style="fill:#ffffff" />

					<path
   class="st0"
   d="m 181.5,154.3 c 0,0 -0.2,0.6 -1,0.5 0,0 -1.3,-0.2 -1.3,-1.5 0,0 -0.1,-1.7 1,-1.9 0,0 0.9,-0.2 1.5,0.8 l 0.7,-0.5 c 0,0 -0.5,-1 -2.1,-1 0,0 -2.1,0.1 -2.3,2.2 0,0 0.1,2.3 2.1,2.3 0,0 1.6,0.2 2.4,-0.7 h 0.1 v -1.2 h -1.1 z"
   id="path144"
   style="fill:#ffffff" />

					<polygon
   class="st0"
   points="170.3,150.7 169,150.7 169,155.2 172.2,155.2 172.2,154.6 170.3,154.6 "
   id="polygon146"
   style="fill:#ffffff" />

					<path
   class="st0"
   d="m 202.2,150.7 h -2.3 v 4.5 h 1.3 v -1.8 h 1.1 c 1.3,0.1 1.5,-1 1.5,-1 0.2,-1.3 -1.6,-1.7 -1.6,-1.7 z m -0.4,2.1 h -0.6 v -1.4 h 0.5 c 0,0 0.8,0.1 0.8,0.8 -0.1,0 -0.2,0.6 -0.7,0.6 z"
   id="path148"
   style="fill:#ffffff" />

					<path
   class="st0"
   d="m 197.1,152.4 c 0.2,-1.4 -1.5,-1.6 -1.5,-1.6 H 193 v 4.5 h 1.3 v -3.9 h 0.6 c 0.8,0 0.8,0.9 0.8,0.9 0,0.7 -0.7,0.8 -0.7,0.8 h -0.4 c -0.1,0 -0.1,0.2 -0.1,0.2 l 1,2 h 1.6 l -1.2,-1.8 c 1.1,-0.3 1.2,-1.1 1.2,-1.1 z"
   id="path150"
   style="fill:#ffffff" />

					<path
   class="st0"
   d="m 189.4,150.7 -1.5,4.5 h 0.6 l 0.4,-1.3 h 1.5 l 0.5,1.3 h 1.5 l -1.9,-4.5 z m -0.3,2.7 0.5,-1.5 0.6,1.5 z"
   id="path152"
   style="fill:#ffffff" />

				</g>
    <polygon
       id="polygon4355"
       class="st9"
       points="173.8,64.9 236.1,148.3 173.7,148.3 "
       transform="matrix(5.5791831,0,0,5.7324838,-780.52771,-370.31845)"
       style="fill:#23945d" />
    <polygon
       id="polygon4357"
       class="st8"
       points="195.1,119.2 191.3,102.6 186.7,109.6 182.1,93.1 176.4,97.4 185.5,119.1 188.3,113.8 193.5,131.2 197.3,126.5 201.5,140.7 203.9,136.4 210,143.6 204.9,126.3 203.1,131.8 197.8,114.7 "
       transform="matrix(5.5791831,0,0,5.7324838,-780.52771,-370.31845)"
       style="fill:#f9ed25" />
    <polygon
       id="polygon4395"
       class="st0"
       points="236.1,64.6 189.1,85.3 194.4,92.4 234.5,65.6 197.3,96.2 203.9,105 234.7,66.5 207,109.1 213.9,118.2 "
       transform="matrix(5.5791831,0,0,5.7324838,-780.52771,-370.31845)"
       style="fill:#ffffff" />
  </g>
</svg>
